<svg xmlns="http://www.w3.org/2000/svg" viewBox="0 0 880 560" role="img" aria-label="Distribution facility with loading bays">
  <defs>
    <linearGradient id="bg" x1="0" y1="0" x2="1" y2="1">
      <stop offset="0" stop-color="#1e293f"/><stop offset="1" stop-color="#101828"/>
    </linearGradient>
    <pattern id="grid" width="36" height="36" patternUnits="userSpaceOnUse">
      <path d="M36 0H0v36" fill="none" stroke="rgba(255,255,255,0.05)" stroke-width="1"/>
    </pattern>
    <radialGradient id="glow" cx="0.5" cy="0.45" r="0.6">
      <stop offset="0" stop-color="rgba(245,158,11,0.16)"/><stop offset="1" stop-color="rgba(245,158,11,0)"/>
    </radialGradient>
  </defs>
  <rect width="880" height="560" fill="url(#bg)"/>
  <rect width="880" height="560" fill="url(#grid)"/>
  <rect width="880" height="560" fill="url(#glow)"/>
  
    <g stroke="rgba(255,255,255,0.85)" stroke-width="3" fill="none">
      <path d="M80 420 V220 L300 140 L520 220 V420"/>
      <path d="M520 260 H800 V420" />
      <rect x="130" y="280" width="90" height="140" rx="4"/>
      <rect x="260" y="280" width="90" height="140" rx="4"/>
      <rect x="390" y="280" width="90" height="140" rx="4"/>
      <line x1="40" y1="420" x2="840" y2="420"/>
    </g>
    <g stroke="#f59e0b" stroke-width="2" fill="none">
      <rect x="560" y="300" width="70" height="60" rx="4"/><rect x="670" y="300" width="70" height="60" rx="4"/>
      <path d="M300 140 v-36 h36" />
    </g>
    <g stroke="rgba(255,255,255,0.28)" stroke-width="1.5">
      <line x1="130" y1="315" x2="220" y2="315"/><line x1="130" y1="350" x2="220" y2="350"/><line x1="130" y1="385" x2="220" y2="385"/>
      <line x1="260" y1="315" x2="350" y2="315"/><line x1="260" y1="350" x2="350" y2="350"/><line x1="260" y1="385" x2="350" y2="385"/>
      <line x1="390" y1="315" x2="480" y2="315"/><line x1="390" y1="350" x2="480" y2="350"/><line x1="390" y1="385" x2="480" y2="385"/>
    </g>
</svg>